<svg width="72" height="22" viewBox="0 0 72 22" fill="none" xmlns="http://www.w3.org/2000/svg">
<path d="M9.30094 15.8027H3.75504V5.31738H1.10074V18H9.30094V15.8027ZM15.558 18.2021C18.4057 18.2021 20.225 16.3828 20.225 13.2803C20.225 10.2217 18.3793 8.37598 15.558 8.37598C12.7368 8.37598 10.8911 10.2305 10.8911 13.2803C10.8911 16.374 12.7104 18.2021 15.558 18.2021ZM15.558 16.2422C14.2924 16.2422 13.4926 15.1787 13.4926 13.2891C13.4926 11.417 14.31 10.3359 15.558 10.3359C16.8061 10.3359 17.6147 11.417 17.6147 13.2891C17.6147 15.1787 16.8149 16.2422 15.558 16.2422ZM30.9734 8.57812H28.407V13.9746C28.407 15.2227 27.695 16.04 26.5525 16.04C25.4187 16.04 24.7946 15.3721 24.7946 14.1152V8.57812H22.2282V14.6514C22.2282 16.8486 23.5818 18.1758 25.6208 18.1758C27.0446 18.1758 27.9763 17.4902 28.4421 16.3037H28.4948V18H30.9734V8.57812Z" fill="#EEFC79"/>
<path d="M38.3027 18C40.9834 18 42.5918 16.6816 42.5918 14.5195C42.5918 12.7617 41.3701 11.5752 39.6123 11.3643V11.3027C40.9658 11.0566 41.9326 9.85254 41.9326 8.44629C41.9326 6.57422 40.4561 5.31738 38.2764 5.31738H33.7148V18H38.3027ZM34.9102 6.38086H38.0215C39.709 6.38086 40.7197 7.19824 40.7197 8.57812C40.7197 10.0723 39.5947 10.9512 37.6699 10.9512H34.9102V6.38086ZM34.9102 16.9365V11.9883H37.9775C40.166 11.9883 41.3613 12.876 41.3613 14.458C41.3613 16.0312 40.21 16.9365 38.1357 16.9365H34.9102ZM47.7942 17.1475C46.555 17.1475 45.7024 16.4619 45.7024 15.4688C45.7024 14.458 46.5022 13.834 47.9436 13.7373L50.6507 13.5527V14.5635C50.6507 16.0137 49.3938 17.1475 47.7942 17.1475ZM47.5569 18.1494C48.9192 18.1494 50.1673 17.3936 50.677 16.2598H50.7034V18H51.8108V11.7422C51.8108 9.87891 50.5013 8.70996 48.4182 8.70996C46.3352 8.70996 44.9905 9.87012 44.8587 11.5049H45.9837C46.1858 10.3975 47.0471 9.73828 48.3919 9.73828C49.8157 9.73828 50.6507 10.5293 50.6507 11.8477V12.6387L47.803 12.8145C45.6936 12.9551 44.5247 13.9043 44.5247 15.4688C44.5247 17.0684 45.7552 18.1494 47.5569 18.1494ZM54.482 18H55.6421V12.5859C55.6421 10.8896 56.7056 9.74707 58.2877 9.74707C59.817 9.74707 60.6959 10.6611 60.6959 12.2607V18H61.856V12.0762C61.856 10.002 60.6255 8.70996 58.6216 8.70996C57.1451 8.70996 56.0728 9.43945 55.607 10.5469H55.5806V8.85938H54.482V18ZM65.784 13.1836V5.31738H64.6151V18H65.784V14.458L66.8036 13.5176L70.4598 18H71.8221L67.6385 12.8057L71.743 8.85938H70.3016L65.784 13.1836Z" fill="white"/>
<path d="M44.5 2.99946C48.6667 1.49946 59.4 -0.600535 69 2.99946" stroke="#EEFC79"/>
</svg>
